<svg width="24" height="24" viewBox="0 0 24 24" fill="none" xmlns="http://www.w3.org/2000/svg">
<path d="M12.1897 1C9.16774 1 6.70514 3.46507 6.70514 6.48701V9.22432H6.60614C5.16324 9.22432 4 10.3851 4 11.8305V20.3939C4 21.8368 5.16324 23 6.60614 23H17.7757C19.2186 23 20.3818 21.8368 20.3818 20.3939V11.8305C20.3818 10.3876 19.2186 9.22432 17.7757 9.22432H17.6767V6.48453C17.6767 3.46507 15.2116 1 12.1897 1ZM12.1897 3.00472C14.135 3.00472 15.6695 4.53921 15.6695 6.48453V9.22185H8.70987V6.48453C8.70987 4.53921 10.2443 3.00472 12.1897 3.00472ZM12.1897 12.5457C13.2094 12.5457 14.036 13.3724 14.036 14.3921C14.036 15.1469 13.5757 15.8251 12.8752 16.1047V18.8223C12.8752 19.2009 12.5708 19.5078 12.1897 19.5078C11.811 19.5078 11.5041 19.2034 11.5041 18.8223V16.1047C10.8037 15.8251 10.3433 15.1469 10.3433 14.3921C10.3433 13.902 10.5389 13.4318 10.8854 13.0853C11.2294 12.7388 11.6996 12.5457 12.1897 12.5457Z" fill="#DCDCDC"/>
</svg>
