<svg width="33" height="32" viewBox="0 0 33 32" fill="none" xmlns="http://www.w3.org/2000/svg">
<rect x="0.5" width="32" height="32" rx="16" fill="#EEEEEE"/>
<g clip-path="url(#clip0_37_2007)">
<path d="M16.6969 15.0833C18.6529 15.0833 20.2386 13.4976 20.2386 11.5416C20.2386 9.58565 18.6529 8 16.6969 8C14.7409 8 13.1553 9.58565 13.1553 11.5416C13.1553 13.4976 14.7409 15.0833 16.6969 15.0833Z" fill="#4F4F4F"/>
<path d="M20.4405 15.4942C20.1742 15.3315 19.8357 15.343 19.5826 15.5254C18.7707 16.1154 17.7748 16.4638 16.6967 16.4638C15.6186 16.4638 14.621 16.1154 13.8108 15.5254C13.5577 15.3413 13.2191 15.3315 12.9529 15.4942C10.8821 16.758 9.5 19.0374 9.5 21.6407C9.5 22.4805 10.1804 23.1609 11.0202 23.1609H22.3715C23.2113 23.1609 23.8917 22.4805 23.8917 21.6407C23.8934 19.0374 22.5112 16.758 20.4405 15.4942Z" fill="#4F4F4F"/>
</g>
<defs>
<clipPath id="clip0_37_2007">
<rect width="16" height="16" fill="white" transform="translate(8.5 8)"/>
</clipPath>
</defs>
</svg>
