<svg width="24" height="24" viewBox="0 0 24 24" fill="none" xmlns="http://www.w3.org/2000/svg">
<mask id="mask0_71_466" style="mask-type:luminance" maskUnits="userSpaceOnUse" x="2" y="3" width="20" height="19">
<path d="M14.9731 21.0177C15.8155 20.7369 15.8452 18.7994 16.5472 18.2643C17.2788 17.7308 19.1321 18.3485 19.6391 17.6184C20.1445 16.9164 19.0213 15.3143 19.3021 14.4719C19.5829 13.6576 21.4378 13.0383 21.4378 12.1132C21.4378 11.1866 19.5829 10.5969 19.3021 9.75448C19.0213 8.91208 20.1742 7.30996 19.6391 6.60796C19.1056 5.87632 17.2507 6.49564 16.5472 5.96212C15.8452 5.45668 15.8155 3.48952 14.9731 3.20872C14.1588 2.92792 13.006 4.50196 12.0778 4.50196C11.1496 4.50196 9.99829 2.92792 9.18241 3.20872C8.34001 3.48952 8.31037 5.42704 7.60837 5.96212C6.87673 6.49564 5.02345 5.87788 4.51645 6.60796C4.01101 7.30996 5.13421 8.91208 4.85341 9.75448C4.57261 10.5688 2.71777 11.1881 2.71777 12.1132C2.71777 13.0398 4.57261 13.6295 4.85341 14.4719C5.13421 15.3143 3.98137 16.9164 4.51645 17.6184C5.04997 18.3501 6.90481 17.7308 7.60837 18.2643C8.31037 18.7697 8.34001 20.7369 9.18241 21.0177C9.99673 21.2985 11.1496 19.7244 12.0778 19.7244C13.006 19.726 14.1292 21.3 14.9731 21.0177Z" fill="white"/>
</mask>
<g mask="url(#mask0_71_466)">
<path d="M21.5156 3.09644H2.63965V21.13H21.5156V3.09644Z" fill="#EA5D8F"/>
</g>
<mask id="mask1_71_466" style="mask-type:luminance" maskUnits="userSpaceOnUse" x="7" y="9" width="10" height="7">
<path d="M15.1994 9.78566C15.4178 9.56414 15.7751 9.56102 15.9966 9.77942C16.2166 9.99626 16.2212 10.3488 16.0091 10.5703L16.0028 10.5766L11.666 14.9867C11.457 15.1989 11.1185 15.2113 10.8954 15.0179L10.8892 15.0117L8.17787 12.5843C7.94543 12.3768 7.92671 12.0196 8.13419 11.7871C8.34011 11.5578 8.69111 11.536 8.92355 11.7372L8.92979 11.7435L11.2386 13.812L15.1994 9.78566Z" fill="white"/>
</mask>
<g mask="url(#mask1_71_466)">
<path d="M16.2435 9.53918H7.91309V15.2332H16.2435V9.53918Z" fill="white"/>
</g>
</svg>
