<svg width="25" height="24" viewBox="0 0 25 24" fill="none" xmlns="http://www.w3.org/2000/svg">
<path d="M4 6.35294C4 5.83007 4.4 5.41176 4.9 5.41176H8.5V4.94118C8.5 4.4183 8.9 4 9.4 4C9.9 4 10.3 4.4183 10.3 4.94118V7.76471C10.3 8.28758 9.9 8.70588 9.4 8.70588C8.9 8.70588 8.5 8.28758 8.5 7.76471V7.29412H4.9C4.4 7.29412 4 6.87582 4 6.35294ZM12.1 7.29412H21.1C21.6 7.29412 22 6.87582 22 6.35294C22 5.83007 21.6 5.41176 21.1 5.41176H12.1C11.6 5.41176 11.2 5.83007 11.2 6.35294C11.2 6.87582 11.6 7.29412 12.1 7.29412ZM4.9 12.9412H13.9C14.4 12.9412 14.8 12.5229 14.8 12C14.8 11.4771 14.4 11.0588 13.9 11.0588H4.9C4.4 11.0588 4 11.4771 4 12C4 12.5229 4.4 12.9412 4.9 12.9412ZM21.1 11.0588H17.5V10.5882C17.5 10.0654 17.1 9.64706 16.6 9.64706C16.1 9.64706 15.7 10.0654 15.7 10.5882V13.4118C15.7 13.9346 16.1 14.3529 16.6 14.3529C17.1 14.3529 17.5 13.9346 17.5 13.4118V12.9412H21.1C21.6 12.9412 22 12.5229 22 12C22 11.4771 21.6 11.0588 21.1 11.0588ZM9.4 15.2941C8.9 15.2941 8.5 15.7124 8.5 16.2353V16.7059H4.9C4.4 16.7059 4 17.1242 4 17.6471C4 18.1699 4.4 18.5882 4.9 18.5882H8.5V19.0588C8.5 19.5817 8.9 20 9.4 20C9.9 20 10.3 19.5817 10.3 19.0588V16.2353C10.3 15.7124 9.9 15.2941 9.4 15.2941ZM21.1 16.7059H12.1C11.6 16.7059 11.2 17.1242 11.2 17.6471C11.2 18.1699 11.6 18.5882 12.1 18.5882H21.1C21.6 18.5882 22 18.1699 22 17.6471C22 17.1242 21.6 16.7059 21.1 16.7059Z" fill="#F29EBC"/>
</svg>
