<svg width="25" height="24" viewBox="0 0 25 24" fill="none" xmlns="http://www.w3.org/2000/svg">
<path d="M3.05278 11.7037L5.17708 6.16049C5.78403 4.83951 7.15625 4 8.68681 4L16.3132 4C17.8306 4 19.216 4.83951 19.8229 6.20988L21.934 11.7037C21.9868 11.7901 22 11.8889 22 12V16.4444C22 18.4074 20.2979 20 18.2 20H6.8C4.70208 20 3 18.4074 3 16.4444V12C3 11.8889 3.01319 11.7901 3.05278 11.7037ZM18.0681 6.85185C17.7646 6.19753 17.0785 5.77778 16.3264 5.77778L8.68681 5.77778C7.92153 5.77778 7.24861 6.20988 6.95833 6.81481L5.30903 11.1111H9.66319C10.191 11.1111 10.6132 11.5062 10.6132 12C10.6132 12.9753 11.4708 13.7778 12.5132 13.7778C13.5556 13.7778 14.4132 12.9753 14.4132 12C14.4132 11.5062 14.8354 11.1111 15.3632 11.1111H19.7174L18.0681 6.85185ZM4.9 16.4444C4.9 17.4198 5.75764 18.2222 6.8 18.2222H18.2C19.2424 18.2222 20.1 17.4198 20.1 16.4444V12.8889H16.1813C15.759 14.4198 14.2681 15.5556 12.5 15.5556C10.7319 15.5556 9.24097 14.4198 8.81875 12.8889H4.9V16.4444Z" fill="#959595"/>
</svg>
