<svg width="307" height="24" viewBox="0 0 307 24" fill="none" xmlns="http://www.w3.org/2000/svg">
<path d="M0.552875 19V2.2H3.12088L13.6569 15.136H12.3849V2.2H15.4809V19H12.9129L2.37688 6.064H3.64888V19H0.552875ZM31.7906 2.2H34.9106V19H31.7906V2.2ZM23.1026 19H19.9826V2.2H23.1026V19ZM32.0306 11.8H22.8386V9.136H32.0306V11.8ZM39.4123 19V2.2H41.9803L52.5163 15.136H51.2443V2.2H54.3403V19H51.7723L41.2363 6.064H42.5083V19H39.4123ZM56.4659 19L64.0259 2.2H67.0979L74.6819 19H71.4179L64.9139 3.856H66.1619L59.6819 19H56.4659ZM59.9459 15.112L60.7859 12.664H69.8579L70.6979 15.112H59.9459ZM76.8185 19V2.2H84.1625C85.9865 2.2 87.5865 2.552 88.9625 3.256C90.3385 3.96 91.4105 4.936 92.1785 6.184C92.9465 7.432 93.3305 8.904 93.3305 10.6C93.3305 12.28 92.9465 13.752 92.1785 15.016C91.4105 16.264 90.3385 17.24 88.9625 17.944C87.5865 18.648 85.9865 19 84.1625 19H76.8185ZM79.9385 16.36H84.0185C85.2825 16.36 86.3705 16.12 87.2825 15.64C88.2105 15.16 88.9225 14.488 89.4185 13.624C89.9305 12.76 90.1865 11.752 90.1865 10.6C90.1865 9.432 89.9305 8.424 89.4185 7.576C88.9225 6.712 88.2105 6.04 87.2825 5.56C86.3705 5.08 85.2825 4.84 84.0185 4.84H79.9385V16.36Z" fill="#EA5D8F"/>
<path d="M103.279 19V2.2H111.151C113.167 2.2 114.703 2.6 115.759 3.4C116.815 4.184 117.343 5.24 117.343 6.568C117.343 7.464 117.135 8.232 116.719 8.872C116.303 9.496 115.743 9.984 115.039 10.336C114.351 10.672 113.599 10.84 112.783 10.84L113.215 9.976C114.159 9.976 115.007 10.152 115.759 10.504C116.511 10.84 117.103 11.336 117.535 11.992C117.983 12.648 118.207 13.464 118.207 14.44C118.207 15.88 117.655 17 116.551 17.8C115.447 18.6 113.807 19 111.631 19H103.279ZM106.399 16.552H111.439C112.607 16.552 113.503 16.36 114.127 15.976C114.751 15.592 115.063 14.976 115.063 14.128C115.063 13.296 114.751 12.688 114.127 12.304C113.503 11.904 112.607 11.704 111.439 11.704H106.159V9.28H110.815C111.903 9.28 112.735 9.088 113.311 8.704C113.903 8.32 114.199 7.744 114.199 6.976C114.199 6.192 113.903 5.608 113.311 5.224C112.735 4.84 111.903 4.648 110.815 4.648H106.399V16.552ZM121.249 19V6.184H124.249V19H121.249ZM122.761 4.072C122.201 4.072 121.737 3.896 121.369 3.544C121.017 3.192 120.841 2.768 120.841 2.272C120.841 1.76 121.017 1.336 121.369 0.999999C121.737 0.647999 122.201 0.472 122.761 0.472C123.321 0.472 123.777 0.639999 124.129 0.975999C124.497 1.296 124.681 1.704 124.681 2.2C124.681 2.728 124.505 3.176 124.153 3.544C123.801 3.896 123.337 4.072 122.761 4.072ZM133.611 19.168C132.379 19.168 131.267 18.896 130.275 18.352C129.299 17.792 128.531 17.024 127.971 16.048C127.411 15.072 127.131 13.92 127.131 12.592C127.131 11.264 127.411 10.112 127.971 9.136C128.531 8.16 129.299 7.4 130.275 6.856C131.267 6.312 132.379 6.04 133.611 6.04C134.683 6.04 135.643 6.28 136.491 6.76C137.339 7.224 138.011 7.936 138.507 8.896C139.003 9.856 139.251 11.088 139.251 12.592C139.251 14.08 139.011 15.312 138.531 16.288C138.051 17.248 137.387 17.968 136.539 18.448C135.691 18.928 134.715 19.168 133.611 19.168ZM133.971 16.6C134.691 16.6 135.331 16.44 135.891 16.12C136.467 15.8 136.923 15.336 137.259 14.728C137.611 14.12 137.787 13.408 137.787 12.592C137.787 11.76 137.611 11.048 137.259 10.456C136.923 9.848 136.467 9.384 135.891 9.064C135.331 8.744 134.691 8.584 133.971 8.584C133.251 8.584 132.603 8.744 132.027 9.064C131.467 9.384 131.011 9.848 130.659 10.456C130.323 11.048 130.155 11.76 130.155 12.592C130.155 13.408 130.323 14.12 130.659 14.728C131.011 15.336 131.467 15.8 132.027 16.12C132.603 16.44 133.251 16.6 133.971 16.6ZM137.859 19V15.976L137.979 12.568L137.739 9.16V1.192H140.715V19H137.859ZM150.087 19.168C148.855 19.168 147.743 18.896 146.751 18.352C145.775 17.792 145.007 17.024 144.447 16.048C143.887 15.072 143.607 13.92 143.607 12.592C143.607 11.264 143.887 10.112 144.447 9.136C145.007 8.16 145.775 7.4 146.751 6.856C147.743 6.312 148.855 6.04 150.087 6.04C151.159 6.04 152.119 6.28 152.967 6.76C153.815 7.224 154.487 7.936 154.983 8.896C155.479 9.856 155.727 11.088 155.727 12.592C155.727 14.08 155.487 15.312 155.007 16.288C154.527 17.248 153.863 17.968 153.015 18.448C152.167 18.928 151.191 19.168 150.087 19.168ZM150.447 16.6C151.167 16.6 151.807 16.44 152.367 16.12C152.943 15.8 153.399 15.336 153.735 14.728C154.087 14.12 154.263 13.408 154.263 12.592C154.263 11.76 154.087 11.048 153.735 10.456C153.399 9.848 152.943 9.384 152.367 9.064C151.807 8.744 151.167 8.584 150.447 8.584C149.727 8.584 149.079 8.744 148.503 9.064C147.943 9.384 147.487 9.848 147.135 10.456C146.799 11.048 146.631 11.76 146.631 12.592C146.631 13.408 146.799 14.12 147.135 14.728C147.487 15.336 147.943 15.8 148.503 16.12C149.079 16.44 149.727 16.6 150.447 16.6ZM154.335 19V15.976L154.455 12.568L154.215 9.16V1.192H157.191V19H154.335ZM161.14 19V6.184H164.14V19H161.14ZM162.652 4.072C162.092 4.072 161.628 3.896 161.26 3.544C160.908 3.192 160.732 2.768 160.732 2.272C160.732 1.76 160.908 1.336 161.26 0.999999C161.628 0.647999 162.092 0.472 162.652 0.472C163.212 0.472 163.668 0.639999 164.02 0.975999C164.388 1.296 164.572 1.704 164.572 2.2C164.572 2.728 164.396 3.176 164.044 3.544C163.692 3.896 163.228 4.072 162.652 4.072ZM175.349 6.04C176.373 6.04 177.285 6.24 178.085 6.64C178.901 7.04 179.541 7.656 180.005 8.488C180.469 9.304 180.701 10.36 180.701 11.656V19H177.701V12.04C177.701 10.904 177.429 10.056 176.885 9.496C176.357 8.936 175.613 8.656 174.653 8.656C173.949 8.656 173.325 8.8 172.781 9.088C172.237 9.376 171.813 9.808 171.509 10.384C171.221 10.944 171.077 11.656 171.077 12.52V19H168.077V6.184H170.933V9.64L170.429 8.584C170.877 7.768 171.525 7.144 172.373 6.712C173.237 6.264 174.229 6.04 175.349 6.04ZM190.339 23.824C189.155 23.824 187.995 23.664 186.859 23.344C185.739 23.04 184.819 22.592 184.099 22L185.443 19.744C186.003 20.208 186.707 20.576 187.555 20.848C188.419 21.136 189.291 21.28 190.171 21.28C191.579 21.28 192.611 20.952 193.267 20.296C193.923 19.656 194.251 18.688 194.251 17.392V15.112L194.491 12.208L194.395 9.304V6.184H197.251V17.056C197.251 19.376 196.659 21.08 195.475 22.168C194.291 23.272 192.579 23.824 190.339 23.824ZM189.955 18.424C188.739 18.424 187.635 18.168 186.643 17.656C185.667 17.128 184.891 16.4 184.315 15.472C183.755 14.544 183.475 13.456 183.475 12.208C183.475 10.976 183.755 9.896 184.315 8.968C184.891 8.04 185.667 7.32 186.643 6.808C187.635 6.296 188.739 6.04 189.955 6.04C191.043 6.04 192.019 6.256 192.883 6.688C193.747 7.12 194.435 7.792 194.947 8.704C195.475 9.616 195.739 10.784 195.739 12.208C195.739 13.632 195.475 14.808 194.947 15.736C194.435 16.648 193.747 17.328 192.883 17.776C192.019 18.208 191.043 18.424 189.955 18.424ZM190.411 15.88C191.163 15.88 191.835 15.728 192.427 15.424C193.019 15.104 193.475 14.672 193.795 14.128C194.131 13.568 194.299 12.928 194.299 12.208C194.299 11.488 194.131 10.856 193.795 10.312C193.475 9.752 193.019 9.328 192.427 9.04C191.835 8.736 191.163 8.584 190.411 8.584C189.659 8.584 188.979 8.736 188.371 9.04C187.779 9.328 187.315 9.752 186.979 10.312C186.659 10.856 186.499 11.488 186.499 12.208C186.499 12.928 186.659 13.568 186.979 14.128C187.315 14.672 187.779 15.104 188.371 15.424C188.979 15.728 189.659 15.88 190.411 15.88ZM213.323 19.24C212.011 19.24 210.755 19.056 209.555 18.688C208.355 18.304 207.403 17.816 206.699 17.224L207.779 14.8C208.451 15.328 209.283 15.768 210.275 16.12C211.267 16.472 212.283 16.648 213.323 16.648C214.203 16.648 214.915 16.552 215.459 16.36C216.003 16.168 216.403 15.912 216.659 15.592C216.915 15.256 217.043 14.88 217.043 14.464C217.043 13.952 216.859 13.544 216.491 13.24C216.123 12.92 215.643 12.672 215.051 12.496C214.475 12.304 213.827 12.128 213.107 11.968C212.403 11.808 211.691 11.624 210.971 11.416C210.267 11.192 209.619 10.912 209.027 10.576C208.451 10.224 207.979 9.76 207.611 9.184C207.243 8.608 207.059 7.872 207.059 6.976C207.059 6.064 207.299 5.232 207.779 4.48C208.275 3.712 209.019 3.104 210.011 2.656C211.019 2.192 212.291 1.96 213.827 1.96C214.835 1.96 215.835 2.088 216.827 2.344C217.819 2.6 218.683 2.968 219.419 3.448L218.435 5.872C217.683 5.424 216.907 5.096 216.107 4.888C215.307 4.664 214.539 4.552 213.803 4.552C212.939 4.552 212.235 4.656 211.691 4.864C211.163 5.072 210.771 5.344 210.515 5.68C210.275 6.016 210.155 6.4 210.155 6.832C210.155 7.344 210.331 7.76 210.683 8.08C211.051 8.384 211.523 8.624 212.099 8.8C212.691 8.976 213.347 9.152 214.067 9.328C214.787 9.488 215.499 9.672 216.203 9.88C216.923 10.088 217.571 10.36 218.147 10.696C218.739 11.032 219.211 11.488 219.563 12.064C219.931 12.64 220.115 13.368 220.115 14.248C220.115 15.144 219.867 15.976 219.371 16.744C218.891 17.496 218.147 18.104 217.139 18.568C216.131 19.016 214.859 19.24 213.323 19.24ZM228.681 19.168C227.369 19.168 226.201 18.888 225.177 18.328C224.153 17.752 223.345 16.968 222.753 15.976C222.161 14.984 221.865 13.856 221.865 12.592C221.865 11.312 222.161 10.184 222.753 9.208C223.345 8.216 224.153 7.44 225.177 6.88C226.201 6.32 227.369 6.04 228.681 6.04C230.009 6.04 231.185 6.32 232.209 6.88C233.249 7.44 234.057 8.208 234.633 9.184C235.225 10.16 235.521 11.296 235.521 12.592C235.521 13.856 235.225 14.984 234.633 15.976C234.057 16.968 233.249 17.752 232.209 18.328C231.185 18.888 230.009 19.168 228.681 19.168ZM228.681 16.6C229.417 16.6 230.073 16.44 230.649 16.12C231.225 15.8 231.673 15.336 231.993 14.728C232.329 14.12 232.497 13.408 232.497 12.592C232.497 11.76 232.329 11.048 231.993 10.456C231.673 9.848 231.225 9.384 230.649 9.064C230.073 8.744 229.425 8.584 228.705 8.584C227.969 8.584 227.313 8.744 226.737 9.064C226.177 9.384 225.729 9.848 225.393 10.456C225.057 11.048 224.889 11.76 224.889 12.592C224.889 13.408 225.057 14.12 225.393 14.728C225.729 15.336 226.177 15.8 226.737 16.12C227.313 16.44 227.961 16.6 228.681 16.6ZM238.39 19V1.192H241.39V19H238.39ZM250.751 19.168C249.663 19.168 248.703 18.968 247.871 18.568C247.039 18.152 246.391 17.528 245.927 16.696C245.463 15.848 245.231 14.784 245.231 13.504V6.184H248.231V13.096C248.231 14.248 248.487 15.112 248.999 15.688C249.527 16.248 250.271 16.528 251.231 16.528C251.935 16.528 252.543 16.384 253.055 16.096C253.583 15.808 253.991 15.376 254.279 14.8C254.583 14.224 254.735 13.512 254.735 12.664V6.184H257.735V19H254.879V15.544L255.383 16.6C254.951 17.432 254.319 18.072 253.487 18.52C252.655 18.952 251.743 19.168 250.751 19.168ZM266.487 19.168C265.079 19.168 263.991 18.808 263.223 18.088C262.455 17.352 262.071 16.272 262.071 14.848V3.352H265.071V14.776C265.071 15.384 265.223 15.856 265.527 16.192C265.847 16.528 266.287 16.696 266.847 16.696C267.519 16.696 268.079 16.52 268.527 16.168L269.367 18.304C269.015 18.592 268.583 18.808 268.071 18.952C267.559 19.096 267.031 19.168 266.487 19.168ZM259.959 8.68V6.28H268.503V8.68H259.959ZM271.835 19V6.184H274.835V19H271.835ZM273.347 4.072C272.787 4.072 272.323 3.896 271.955 3.544C271.603 3.192 271.427 2.768 271.427 2.272C271.427 1.76 271.603 1.336 271.955 0.999999C272.323 0.647999 272.787 0.472 273.347 0.472C273.907 0.472 274.363 0.639999 274.715 0.975999C275.083 1.296 275.267 1.704 275.267 2.2C275.267 2.728 275.091 3.176 274.739 3.544C274.387 3.896 273.923 4.072 273.347 4.072ZM284.533 19.168C283.221 19.168 282.053 18.888 281.029 18.328C280.005 17.752 279.197 16.968 278.605 15.976C278.013 14.984 277.717 13.856 277.717 12.592C277.717 11.312 278.013 10.184 278.605 9.208C279.197 8.216 280.005 7.44 281.029 6.88C282.053 6.32 283.221 6.04 284.533 6.04C285.861 6.04 287.037 6.32 288.061 6.88C289.101 7.44 289.909 8.208 290.485 9.184C291.077 10.16 291.373 11.296 291.373 12.592C291.373 13.856 291.077 14.984 290.485 15.976C289.909 16.968 289.101 17.752 288.061 18.328C287.037 18.888 285.861 19.168 284.533 19.168ZM284.533 16.6C285.269 16.6 285.925 16.44 286.501 16.12C287.077 15.8 287.525 15.336 287.845 14.728C288.181 14.12 288.349 13.408 288.349 12.592C288.349 11.76 288.181 11.048 287.845 10.456C287.525 9.848 287.077 9.384 286.501 9.064C285.925 8.744 285.277 8.584 284.557 8.584C283.821 8.584 283.165 8.744 282.589 9.064C282.029 9.384 281.581 9.848 281.245 10.456C280.909 11.048 280.741 11.76 280.741 12.592C280.741 13.408 280.909 14.12 281.245 14.728C281.581 15.336 282.029 15.8 282.589 16.12C283.165 16.44 283.813 16.6 284.533 16.6ZM301.513 6.04C302.537 6.04 303.449 6.24 304.249 6.64C305.065 7.04 305.705 7.656 306.169 8.488C306.633 9.304 306.865 10.36 306.865 11.656V19H303.865V12.04C303.865 10.904 303.593 10.056 303.049 9.496C302.521 8.936 301.777 8.656 300.817 8.656C300.113 8.656 299.489 8.8 298.945 9.088C298.401 9.376 297.977 9.808 297.673 10.384C297.385 10.944 297.241 11.656 297.241 12.52V19H294.241V6.184H297.097V9.64L296.593 8.584C297.041 7.768 297.689 7.144 298.537 6.712C299.401 6.264 300.393 6.04 301.513 6.04Z" fill="#4F4F4F"/>
</svg>
